HIERARCHY
ROOT Joint1
{
	OFFSET 0.000000 0.000000 0.000000
	CHANNELS 6 Xposition Yposition Zposition Xrotation Yrotation Zrotation
	JOINT Joint2
	{
		OFFSET -0.000000 0.000000 1.456275
		CHANNELS 6 Xposition Yposition Zposition Xrotation Yrotation Zrotation
		JOINT Joint3
		{
			OFFSET -0.000000 0.000002 1.471446
			CHANNELS 6 Xposition Yposition Zposition Xrotation Yrotation Zrotation
			JOINT Joint4
			{
				OFFSET 0.625745 0.000000 0.917755
				CHANNELS 6 Xposition Yposition Zposition Xrotation Yrotation Zrotation
				JOINT Joint5
				{
					OFFSET -0.629534 0.000001 0.940221
					CHANNELS 6 Xposition Yposition Zposition Xrotation Yrotation Zrotation
					JOINT Joint6
					{
						OFFSET -0.000001 0.113772 1.960660
						CHANNELS 6 Xposition Yposition Zposition Xrotation Yrotation Zrotation
						JOINT Joint7
						{
							OFFSET -0.669733 -0.113771 0.388340
							CHANNELS 6 Xposition Yposition Zposition Xrotation Yrotation Zrotation
							End Site
							{
								OFFSET 0.005509 0.005509 0.438980
							}
						}
					}
				}
			}
		}
	}
}
MOTION
Frames: 9
Frame Time: 0.041667
0.000000 0.000000 0.000000 -0.000000 1.019410 -7.936173 -0.000000 0.000000 1.456275 -0.000000 -16.275692 0.000001 -0.000000 0.000002 1.471446 -0.000001 -1.133455 40.838022 0.625745 0.000000 0.917755 0.001894 90.180005 -0.000921 -0.629534 0.000001 0.940221 -0.000004 1.709736 -23.217894 -0.000001 0.113772 1.960660 -88.303896 66.731631 -0.000008 -0.669733 -0.113771 0.388341 0.221883 2.967980 69.284551 
0.000000 0.000000 0.000000 -0.000000 1.019410 -8.143043 -0.000000 -0.000000 1.456275 0.000000 -15.527221 0.000001 -0.000000 0.000002 1.471446 -0.000001 -1.133455 41.903682 0.625745 0.000000 0.917755 -0.000110 89.010684 -0.000005 -0.629534 0.000001 0.940221 -0.000003 1.709734 -23.822978 -0.000001 0.113772 1.960661 -88.303889 66.125356 -0.000006 -0.669733 -0.113771 0.388341 0.233973 2.940113 67.572571 
0.000000 0.000000 0.000000 -0.000000 1.019410 -8.351032 -0.000000 0.000000 1.456275 0.000000 -14.774705 0.000001 -0.000000 0.000002 1.471445 -0.000002 -1.133455 42.975103 0.625745 0.000000 0.917755 -0.000208 87.835037 0.000111 -0.629534 0.000001 0.940221 -0.000002 1.709735 -24.431327 -0.000001 0.113772 1.960661 -88.303889 65.515803 -0.000007 -0.669733 -0.113771 0.388340 0.245282 2.911743 65.851384 
0.000000 0.000000 0.000000 -0.000000 1.019410 -8.559986 -0.000000 0.000000 1.456275 0.000000 -14.018697 0.000000 -0.000000 0.000002 1.471446 -0.000001 -1.133457 44.051493 0.625745 0.000000 0.917755 -0.000098 86.653934 0.000070 -0.629534 0.000001 0.940221 0.000001 1.709737 -25.042498 -0.000001 0.113772 1.960660 -88.303889 64.903422 -0.000001 -0.669733 -0.113771 0.388340 0.255783 2.882914 64.122260 
0.000000 0.000000 0.000000 -0.000000 1.019410 -8.769192 -0.000000 -0.000000 1.456275 0.000000 -13.261769 -0.000000 -0.000000 0.000002 1.471446 -0.000002 -1.133455 45.129194 0.625745 0.000000 0.917755 -0.000008 85.471403 -0.000016 -0.629534 0.000001 0.940221 0.000001 1.709736 -25.654413 -0.000001 0.113772 1.960661 -88.303896 64.290289 0.000001 -0.669733 -0.113771 0.388339 0.265416 2.853745 62.391087 
0.000000 0.000000 0.000000 -0.000000 1.019410 -8.978094 -0.000000 0.000000 1.456275 -0.000000 -12.505948 -0.000000 -0.000000 0.000002 1.471446 -0.000002 -1.133457 46.205314 0.625745 0.000000 0.917755 -0.000043 84.290600 0.000004 -0.629533 0.000001 0.940220 0.000000 1.709737 -26.265436 -0.000001 0.113772 1.960660 -88.303889 63.678065 0.000007 -0.669733 -0.113771 0.388340 0.274151 2.824344 60.662496 
0.000000 0.000000 0.000000 -0.000000 1.019410 -9.186742 -0.000000 -0.000000 1.456275 0.000000 -11.751044 0.000000 -0.000000 0.000002 1.471446 -0.000002 -1.133455 47.280140 0.625745 0.000000 0.917755 -0.000041 83.111224 -0.000002 -0.629533 0.000001 0.940221 -0.000000 1.709736 -26.875717 -0.000001 0.113772 1.960661 -88.303889 63.066586 -0.000001 -0.669733 -0.113770 0.388340 0.281984 2.794728 58.936056 
0.000000 0.000000 0.000000 -0.000000 1.019410 -9.395342 -0.000000 0.000000 1.456275 0.000000 -10.996315 -0.000000 -0.000000 0.000002 1.471446 -0.000002 -1.133456 48.354710 0.625745 0.000000 0.917755 -0.000001 81.932122 -0.000018 -0.629533 0.000001 0.940221 0.000000 1.709735 -27.485859 -0.000001 0.113772 1.960661 -88.303889 62.455236 -0.000005 -0.669733 -0.113771 0.388340 0.288919 2.764897 57.210050 
0.000000 0.000000 0.000000 -0.000000 1.019410 -9.604049 -0.000000 0.000000 1.456275 -0.000000 -10.241205 -0.000000 -0.000000 0.000002 1.471446 -0.000002 -1.133456 49.429819 0.625745 0.000000 0.917755 -0.000020 80.752425 -0.000003 -0.629534 0.000001 0.940221 0.000000 1.709735 -28.096309 -0.000001 0.113772 1.960660 -88.303889 61.843579 -0.000001 -0.669733 -0.113771 0.388341 0.294953 2.734853 55.483225 
